# Blender 4.0.2
# www.blender.org
mtllib shell2.mtl
o Cylinder.001
v 0.097545 -0.337947 -0.490393
v 0.097545 0.150000 -0.490393
v 0.277785 -0.337947 -0.415735
v 0.277785 0.150000 -0.415735
v 0.415735 -0.337947 -0.277785
v 0.415735 0.150000 -0.277785
v 0.490393 -0.337947 -0.097545
v 0.490393 0.150000 -0.097545
v 0.490393 -0.337947 0.097545
v 0.490393 0.150000 0.097545
v 0.415735 -0.337947 0.277785
v 0.415735 0.150000 0.277785
v 0.277785 -0.337947 0.415735
v 0.277785 0.150000 0.415735
v 0.097545 -0.337947 0.490393
v 0.097545 0.150000 0.490393
v -0.097545 -0.337947 0.490393
v -0.097545 0.150000 0.490393
v -0.277785 -0.337947 0.415735
v -0.277785 0.150000 0.415735
v -0.415735 -0.337947 0.277785
v -0.415735 0.150000 0.277785
v -0.490393 -0.337947 0.097545
v -0.490393 0.150000 0.097545
v -0.490393 -0.337947 -0.097545
v -0.490393 0.150000 -0.097545
v -0.415735 -0.337947 -0.277785
v -0.415735 0.150000 -0.277785
v -0.277785 -0.337947 -0.415735
v -0.277785 0.150000 -0.415735
v -0.097545 -0.337947 -0.490393
v -0.097545 0.150000 -0.490393
v 0.077846 0.245088 -0.391356
v 0.331776 0.245088 -0.221685
v 0.391356 0.245088 0.077846
v 0.221685 0.245088 0.331776
v -0.077846 0.245088 0.391356
v -0.331776 0.245088 0.221685
v -0.391356 0.245088 -0.077846
v -0.221685 0.245088 -0.331776
vn 0.9952 -0.0000 -0.0980
vn 0.9952 -0.0000 0.0980
vn -0.2903 -0.0000 0.9569
vn -0.4714 -0.0000 0.8819
vn -0.6344 -0.0000 0.7730
vn -0.7730 -0.0000 0.6344
vn -0.9569 -0.0000 -0.2903
vn -0.8819 -0.0000 -0.4714
vn 0.0980 -0.0000 0.9952
vn -0.0980 -0.0000 0.9952
vn -0.8819 -0.0000 0.4714
vn -0.9569 -0.0000 0.2903
vn -0.7730 -0.0000 -0.6344
vn -0.6344 -0.0000 -0.7730
vn -0.4714 -0.0000 -0.8819
vn -0.2903 -0.0000 -0.9569
vn -0.9952 -0.0000 0.0980
vn -0.9952 -0.0000 -0.0980
vn 0.9569 -0.0000 0.2903
vn 0.8819 -0.0000 0.4714
vn -0.0980 -0.0000 -0.9952
vn 0.0980 -0.0000 -0.9952
vn 0.8819 -0.0000 -0.4714
vn 0.9569 -0.0000 -0.2903
vn 0.2903 -0.0000 -0.9569
vn 0.4714 -0.0000 -0.8819
vn 0.4714 -0.0000 0.8819
vn 0.2903 -0.0000 0.9569
vn 0.6344 -0.0000 -0.7730
vn 0.7730 -0.0000 -0.6344
vn 0.6577 0.7264 0.1995
vn 0.4360 0.7264 0.5313
vn 0.6061 0.7264 0.3240
vn 0.7730 -0.0000 0.6344
vn 0.6344 -0.0000 0.7730
vn -0.0000 -1.0000 -0.0000
vn -0.0000 1.0000 -0.0000
vn -0.6577 0.7264 0.1995
vn -0.6061 0.7264 0.3240
vn -0.6840 0.7264 -0.0674
vn -0.6061 0.7264 -0.3240
vn -0.6577 0.7264 -0.1995
vn -0.4360 0.7264 -0.5313
vn -0.3240 0.7264 0.6061
vn -0.1995 0.7264 0.6577
vn -0.5313 0.7264 0.4360
vn 0.1995 0.7264 0.6577
vn 0.3240 0.7264 0.6061
vn -0.0674 0.7264 0.6840
vn -0.1995 0.7264 -0.6577
vn -0.3240 0.7264 -0.6061
vn 0.0674 0.7264 -0.6840
vn 0.6061 0.7264 -0.3240
vn 0.6840 0.7264 0.0674
vn 0.6577 0.7264 -0.1995
vn 0.3240 0.7264 -0.6061
vn 0.1995 0.7264 -0.6577
vn 0.5313 0.7264 -0.4360
vt 0.781250 1.000000
vt 0.718750 1.000000
vt 0.718750 0.500000
vt 0.781250 0.500000
vt 0.468750 1.000000
vt 0.406250 1.000000
vt 0.406250 0.500000
vt 0.468750 0.500000
vt 0.343750 1.000000
vt 0.343750 0.500000
vt 0.218750 1.000000
vt 0.156250 1.000000
vt 0.156250 0.500000
vt 0.218750 0.500000
vt 0.531250 1.000000
vt 0.531250 0.500000
vt 0.281250 1.000000
vt 0.281250 0.500000
vt 0.093750 1.000000
vt 0.093750 0.500000
vt 0.031250 1.000000
vt 0.031250 0.500000
vt 0.656250 1.000000
vt 0.656250 0.500000
vt 0.968750 1.000000
vt 0.968750 0.500000
vt 0.843750 1.000000
vt 0.843750 0.500000
vt 0.906250 1.000000
vt 0.906250 0.500000
vt 0.593750 1.000000
vt 0.593750 0.500000
vt 0.796822 0.485388
vt 0.883337 0.449553
vt 0.949553 0.383337
vt 0.985388 0.296822
vt 0.985388 0.203178
vt 0.949553 0.116663
vt 0.883337 0.050447
vt 0.796822 0.014612
vt 0.703178 0.014612
vt 0.616663 0.050447
vt 0.550447 0.116663
vt 0.514612 0.203178
vt 0.514612 0.296822
vt 0.550447 0.383337
vt 0.616663 0.449553
vt 0.703178 0.485388
vt 0.296822 0.485388
vt 0.116663 0.449553
vt 0.014612 0.296822
vt 0.050447 0.116663
vt 0.203178 0.014612
vt 0.383337 0.050447
vt 0.485388 0.203178
vt 0.449553 0.383337
s 0
usemtl Material.001
f 8/1/1 10/2/2 9/3/2 7/4/1
f 18/5/3 20/6/4 19/7/4 17/8/3
f 20/6/5 22/9/6 21/10/6 19/7/5
f 26/11/7 28/12/8 27/13/8 25/14/7
f 16/15/9 18/5/10 17/8/10 15/16/9
f 22/9/11 24/17/12 23/18/12 21/10/11
f 28/12/13 30/19/14 29/20/14 27/13/13
f 30/19/15 32/21/16 31/22/16 29/20/15
f 24/17/17 26/11/18 25/14/18 23/18/17
f 10/2/19 12/23/20 11/24/20 9/3/19
f 31/22/21 32/21/21 2/25/22 1/26/22
f 6/27/23 8/1/24 7/4/24 5/28/23
f 2/25/25 4/29/26 3/30/26 1/26/25
f 14/31/27 16/15/28 15/16/28 13/32/27
f 4/29/29 6/27/30 5/28/30 3/30/29
f 10/2/31 35/2/31 36/31/32 14/31/32 12/23/33
f 12/23/34 14/31/35 13/32/35 11/24/34
f 1/33/36 3/34/36 5/35/36 7/36/36 9/37/36 11/38/36 13/39/36 15/40/36 17/41/36 19/42/36 21/43/36 23/44/36 25/45/36 27/46/36 29/47/36 31/48/36
f 33/49/37 40/50/37 39/51/37 38/52/37 37/53/37 36/54/37 35/55/37 34/56/37
f 24/17/38 22/9/39 38/9/39 39/11/40 26/11/40
f 28/12/41 26/11/42 39/11/42 40/19/43 30/19/43
f 20/6/44 18/5/45 37/5/45 38/9/46 22/9/46
f 16/15/47 14/31/48 36/31/48 37/5/49 18/5/49
f 32/21/50 30/19/51 40/19/51 33/25/52 2/25/52
f 6/27/53 34/27/53 35/2/54 10/2/54 8/1/55
f 4/29/56 2/25/57 33/25/57 34/27/58 6/27/58
