# Blender 4.0.2
# www.blender.org
mtllib shell.mtl
o Cylinder.005
v 0.000000 -0.050000 -0.500000
v 0.000000 0.150000 -0.500000
v 0.097545 -0.050000 -0.490393
v 0.097545 0.150000 -0.490393
v 0.191342 -0.050000 -0.461940
v 0.191342 0.150000 -0.461940
v 0.277785 -0.050000 -0.415735
v 0.277785 0.150000 -0.415735
v 0.353553 -0.050000 -0.353553
v 0.353553 0.150000 -0.353553
v 0.415735 -0.050000 -0.277785
v 0.415735 0.150000 -0.277785
v 0.461940 -0.050000 -0.191342
v 0.461940 0.150000 -0.191342
v 0.490393 -0.050000 -0.097545
v 0.490393 0.150000 -0.097545
v 0.500000 -0.050000 0.000000
v 0.500000 0.150000 0.000000
v 0.490393 -0.050000 0.097545
v 0.490393 0.150000 0.097545
v 0.461940 -0.050000 0.191342
v 0.461940 0.150000 0.191342
v 0.415735 -0.050000 0.277785
v 0.415735 0.150000 0.277785
v 0.353553 -0.050000 0.353553
v 0.353553 0.150000 0.353553
v 0.277785 -0.050000 0.415735
v 0.277785 0.150000 0.415735
v 0.191342 -0.050000 0.461940
v 0.191342 0.150000 0.461940
v 0.097545 -0.050000 0.490393
v 0.097545 0.150000 0.490393
v 0.000000 -0.050000 0.500000
v 0.000000 0.150000 0.500000
v -0.097545 -0.050000 0.490393
v -0.097545 0.150000 0.490393
v -0.191342 -0.050000 0.461940
v -0.191342 0.150000 0.461940
v -0.277785 -0.050000 0.415735
v -0.277785 0.150000 0.415735
v -0.353553 -0.050000 0.353553
v -0.353553 0.150000 0.353553
v -0.415735 -0.050000 0.277785
v -0.415735 0.150000 0.277785
v -0.461940 -0.050000 0.191342
v -0.461940 0.150000 0.191342
v -0.490393 -0.050000 0.097545
v -0.490393 0.150000 0.097545
v -0.500000 -0.050000 0.000000
v -0.500000 0.150000 0.000000
v -0.490393 -0.050000 -0.097545
v -0.490393 0.150000 -0.097545
v -0.461940 -0.050000 -0.191342
v -0.461940 0.150000 -0.191342
v -0.415735 -0.050000 -0.277785
v -0.415735 0.150000 -0.277785
v -0.353553 -0.050000 -0.353553
v -0.353553 0.150000 -0.353553
v -0.277785 -0.050000 -0.415735
v -0.277785 0.150000 -0.415735
v -0.191342 -0.050000 -0.461940
v -0.191342 0.150000 -0.461940
v -0.097545 -0.050000 -0.490393
v -0.097545 0.150000 -0.490393
v 0.000000 0.245088 -0.399023
v 0.077846 0.245088 -0.391356
v 0.152700 0.245088 -0.368649
v 0.221685 0.245088 -0.331776
v 0.282152 0.245088 -0.282152
v 0.331776 0.245088 -0.221685
v 0.368649 0.245088 -0.152700
v 0.391356 0.245088 -0.077846
v 0.399023 0.245088 -0.000000
v 0.391356 0.245088 0.077846
v 0.368649 0.245088 0.152700
v 0.331776 0.245088 0.221685
v 0.282152 0.245088 0.282152
v 0.221685 0.245088 0.331776
v 0.152700 0.245088 0.368649
v 0.077846 0.245088 0.391356
v 0.000000 0.245088 0.399023
v -0.077846 0.245088 0.391356
v -0.152700 0.245088 0.368649
v -0.221685 0.245088 0.331776
v -0.282152 0.245088 0.282152
v -0.331776 0.245088 0.221685
v -0.368649 0.245088 0.152700
v -0.391356 0.245088 0.077846
v -0.399023 0.245088 -0.000000
v -0.391356 0.245088 -0.077846
v -0.368649 0.245088 -0.152700
v -0.331776 0.245088 -0.221685
v -0.282152 0.245088 -0.282152
v -0.221685 0.245088 -0.331776
v -0.152700 0.245088 -0.368649
v -0.077846 0.245088 -0.391356
vn 0.0980 -0.0000 -0.9952
vn 0.2903 -0.0000 -0.9569
vn 0.4714 -0.0000 -0.8819
vn 0.6344 -0.0000 -0.7730
vn 0.7730 -0.0000 -0.6344
vn 0.8819 -0.0000 -0.4714
vn 0.9569 -0.0000 -0.2903
vn 0.9952 -0.0000 -0.0980
vn 0.9952 -0.0000 0.0980
vn 0.9569 -0.0000 0.2903
vn 0.8819 -0.0000 0.4714
vn 0.7730 -0.0000 0.6344
vn 0.6344 -0.0000 0.7730
vn 0.4714 -0.0000 0.8819
vn 0.2903 -0.0000 0.9569
vn 0.0980 -0.0000 0.9952
vn -0.0980 -0.0000 0.9952
vn -0.2903 -0.0000 0.9569
vn -0.4714 -0.0000 0.8819
vn -0.6344 -0.0000 0.7730
vn -0.7730 -0.0000 0.6344
vn -0.8819 -0.0000 0.4714
vn -0.9569 -0.0000 0.2903
vn -0.9952 -0.0000 0.0980
vn -0.9952 -0.0000 -0.0980
vn -0.9569 -0.0000 -0.2903
vn -0.8819 -0.0000 -0.4714
vn -0.7730 -0.0000 -0.6344
vn -0.6344 -0.0000 -0.7730
vn -0.4714 -0.0000 -0.8819
vn 0.1995 0.7264 -0.6577
vn -0.2903 -0.0000 -0.9569
vn -0.0980 -0.0000 -0.9952
vn -0.0000 -1.0000 -0.0000
vn -0.0000 1.0000 -0.0000
vn 0.6062 0.7264 0.3240
vn -0.4360 0.7264 0.5313
vn -0.4360 0.7264 -0.5313
vn 0.6577 0.7264 -0.1995
vn 0.0674 0.7264 0.6840
vn -0.6840 0.7264 -0.0674
vn 0.3240 0.7264 -0.6062
vn 0.5313 0.7264 0.4360
vn -0.5313 0.7264 0.4360
vn -0.3240 0.7264 -0.6062
vn 0.6840 0.7264 -0.0674
vn -0.0674 0.7264 0.6840
vn -0.6577 0.7264 -0.1995
vn 0.4360 0.7264 -0.5313
vn 0.4360 0.7264 0.5313
vn -0.6062 0.7264 0.3240
vn -0.1995 0.7264 -0.6577
vn 0.6840 0.7264 0.0674
vn -0.1995 0.7264 0.6577
vn -0.6062 0.7264 -0.3240
vn 0.5313 0.7264 -0.4360
vn 0.3240 0.7264 0.6062
vn -0.6577 0.7264 0.1995
vn 0.0674 0.7264 -0.6840
vn -0.0674 0.7264 -0.6840
vn 0.6577 0.7264 0.1995
vn -0.3240 0.7264 0.6062
vn -0.5313 0.7264 -0.4360
vn 0.6062 0.7264 -0.3240
vn 0.1995 0.7264 0.6577
vn -0.6840 0.7264 0.0674
vt 1.000000 0.500000
vt 1.000000 1.000000
vt 0.968750 1.000000
vt 0.968750 0.500000
vt 0.937500 1.000000
vt 0.937500 0.500000
vt 0.906250 1.000000
vt 0.906250 0.500000
vt 0.875000 1.000000
vt 0.875000 0.500000
vt 0.843750 1.000000
vt 0.843750 0.500000
vt 0.812500 1.000000
vt 0.812500 0.500000
vt 0.781250 1.000000
vt 0.781250 0.500000
vt 0.750000 1.000000
vt 0.750000 0.500000
vt 0.718750 1.000000
vt 0.718750 0.500000
vt 0.687500 1.000000
vt 0.687500 0.500000
vt 0.656250 1.000000
vt 0.656250 0.500000
vt 0.625000 1.000000
vt 0.625000 0.500000
vt 0.593750 1.000000
vt 0.593750 0.500000
vt 0.562500 1.000000
vt 0.562500 0.500000
vt 0.531250 1.000000
vt 0.531250 0.500000
vt 0.500000 1.000000
vt 0.500000 0.500000
vt 0.468750 1.000000
vt 0.468750 0.500000
vt 0.437500 1.000000
vt 0.437500 0.500000
vt 0.406250 1.000000
vt 0.406250 0.500000
vt 0.375000 1.000000
vt 0.375000 0.500000
vt 0.343750 1.000000
vt 0.343750 0.500000
vt 0.312500 1.000000
vt 0.312500 0.500000
vt 0.281250 1.000000
vt 0.281250 0.500000
vt 0.250000 1.000000
vt 0.250000 0.500000
vt 0.218750 1.000000
vt 0.218750 0.500000
vt 0.187500 1.000000
vt 0.187500 0.500000
vt 0.156250 1.000000
vt 0.156250 0.500000
vt 0.125000 1.000000
vt 0.125000 0.500000
vt 0.093750 1.000000
vt 0.093750 0.500000
vt 0.062500 1.000000
vt 0.062500 0.500000
vt 0.031250 1.000000
vt 0.031250 0.500000
vt 0.000000 1.000000
vt 0.000000 0.500000
vt 0.750000 0.490000
vt 0.796822 0.485388
vt 0.841844 0.471731
vt 0.883337 0.449553
vt 0.919706 0.419706
vt 0.949553 0.383337
vt 0.971731 0.341844
vt 0.985388 0.296822
vt 0.990000 0.250000
vt 0.985388 0.203178
vt 0.971731 0.158156
vt 0.949553 0.116663
vt 0.919706 0.080294
vt 0.883337 0.050447
vt 0.841844 0.028269
vt 0.796822 0.014612
vt 0.750000 0.010000
vt 0.703178 0.014612
vt 0.658156 0.028269
vt 0.616663 0.050447
vt 0.580294 0.080294
vt 0.550447 0.116663
vt 0.528269 0.158156
vt 0.514612 0.203178
vt 0.510000 0.250000
vt 0.514612 0.296822
vt 0.528269 0.341844
vt 0.550447 0.383337
vt 0.580294 0.419706
vt 0.616663 0.449553
vt 0.658156 0.471731
vt 0.703178 0.485388
vt 0.296822 0.485388
vt 0.250000 0.490000
vt 0.203178 0.485388
vt 0.158156 0.471731
vt 0.116663 0.449553
vt 0.080294 0.419706
vt 0.050447 0.383337
vt 0.028269 0.341844
vt 0.014612 0.296822
vt 0.010000 0.250000
vt 0.014612 0.203178
vt 0.028269 0.158156
vt 0.050447 0.116663
vt 0.080294 0.080294
vt 0.116663 0.050447
vt 0.158156 0.028269
vt 0.203178 0.014612
vt 0.250000 0.010000
vt 0.296822 0.014612
vt 0.341844 0.028269
vt 0.383337 0.050447
vt 0.419706 0.080294
vt 0.449553 0.116663
vt 0.471731 0.158156
vt 0.485388 0.203178
vt 0.490000 0.250000
vt 0.485388 0.296822
vt 0.471731 0.341844
vt 0.449553 0.383337
vt 0.419706 0.419706
vt 0.383337 0.449553
vt 0.341844 0.471731
s 0
usemtl Material.105
f 1/1/1 2/2/1 4/3/1 3/4/1
f 3/4/2 4/3/2 6/5/2 5/6/2
f 5/6/3 6/5/3 8/7/3 7/8/3
f 7/8/4 8/7/4 10/9/4 9/10/4
f 9/10/5 10/9/5 12/11/5 11/12/5
f 11/12/6 12/11/6 14/13/6 13/14/6
f 13/14/7 14/13/7 16/15/7 15/16/7
f 15/16/8 16/15/8 18/17/8 17/18/8
f 17/18/9 18/17/9 20/19/9 19/20/9
f 19/20/10 20/19/10 22/21/10 21/22/10
f 21/22/11 22/21/11 24/23/11 23/24/11
f 23/24/12 24/23/12 26/25/12 25/26/12
f 25/26/13 26/25/13 28/27/13 27/28/13
f 27/28/14 28/27/14 30/29/14 29/30/14
f 29/30/15 30/29/15 32/31/15 31/32/15
f 31/32/16 32/31/16 34/33/16 33/34/16
f 33/34/17 34/33/17 36/35/17 35/36/17
f 35/36/18 36/35/18 38/37/18 37/38/18
f 37/38/19 38/37/19 40/39/19 39/40/19
f 39/40/20 40/39/20 42/41/20 41/42/20
f 41/42/21 42/41/21 44/43/21 43/44/21
f 43/44/22 44/43/22 46/45/22 45/46/22
f 45/46/23 46/45/23 48/47/23 47/48/23
f 47/48/24 48/47/24 50/49/24 49/50/24
f 49/50/25 50/49/25 52/51/25 51/52/25
f 51/52/26 52/51/26 54/53/26 53/54/26
f 53/54/27 54/53/27 56/55/27 55/56/27
f 55/56/28 56/55/28 58/57/28 57/58/28
f 57/58/29 58/57/29 60/59/29 59/60/29
f 59/60/30 60/59/30 62/61/30 61/62/30
f 6/5/31 4/3/31 66/3/31 67/5/31
f 61/62/32 62/61/32 64/63/32 63/64/32
f 63/64/33 64/63/33 2/65/33 1/66/33
f 1/67/34 3/68/34 5/69/34 7/70/34 9/71/34 11/72/34 13/73/34 15/74/34 17/75/34 19/76/34 21/77/34 23/78/34 25/79/34 27/80/34 29/81/34 31/82/34 33/83/34 35/84/34 37/85/34 39/86/34 41/87/34 43/88/34 45/89/34 47/90/34 49/91/34 51/92/34 53/93/34 55/94/34 57/95/34 59/96/34 61/97/34 63/98/34
f 66/99/35 65/100/35 96/101/35 95/102/35 94/103/35 93/104/35 92/105/35 91/106/35 90/107/35 89/108/35 88/109/35 87/110/35 86/111/35 85/112/35 84/113/35 83/114/35 82/115/35 81/116/35 80/117/35 79/118/35 78/119/35 77/120/35 76/121/35 75/122/35 74/123/35 73/124/35 72/125/35 71/126/35 70/127/35 69/128/35 68/129/35 67/130/35
f 24/23/36 22/21/36 75/21/36 76/23/36
f 42/41/37 40/39/37 84/39/37 85/41/37
f 60/59/38 58/57/38 93/57/38 94/59/38
f 16/15/39 14/13/39 71/13/39 72/15/39
f 34/33/40 32/31/40 80/31/40 81/33/40
f 52/51/41 50/49/41 89/49/41 90/51/41
f 8/7/42 6/5/42 67/5/42 68/7/42
f 26/25/43 24/23/43 76/23/43 77/25/43
f 44/43/44 42/41/44 85/41/44 86/43/44
f 62/61/45 60/59/45 94/59/45 95/61/45
f 18/17/46 16/15/46 72/15/46 73/17/46
f 36/35/47 34/33/47 81/33/47 82/35/47
f 54/53/48 52/51/48 90/51/48 91/53/48
f 10/9/49 8/7/49 68/7/49 69/9/49
f 28/27/50 26/25/50 77/25/50 78/27/50
f 46/45/51 44/43/51 86/43/51 87/45/51
f 64/63/52 62/61/52 95/61/52 96/63/52
f 20/19/53 18/17/53 73/17/53 74/19/53
f 38/37/54 36/35/54 82/35/54 83/37/54
f 56/55/55 54/53/55 91/53/55 92/55/55
f 12/11/56 10/9/56 69/9/56 70/11/56
f 30/29/57 28/27/57 78/27/57 79/29/57
f 48/47/58 46/45/58 87/45/58 88/47/58
f 4/3/59 2/2/59 65/2/59 66/3/59
f 2/65/60 64/63/60 96/63/60 65/65/60
f 22/21/61 20/19/61 74/19/61 75/21/61
f 40/39/62 38/37/62 83/37/62 84/39/62
f 58/57/63 56/55/63 92/55/63 93/57/63
f 14/13/64 12/11/64 70/11/64 71/13/64
f 32/31/65 30/29/65 79/29/65 80/31/65
f 50/49/66 48/47/66 88/47/66 89/49/66
