# Blender 4.0.2
# www.blender.org
mtllib ship_real_1_mast.mtl
o Ship
v -0.050000 -0.500000 -2.059404
v -0.075000 -0.035255 -2.000000
v 0.000000 -0.500000 2.158834
v 0.000000 -0.035255 2.000000
v 0.050000 -0.500000 -2.059404
v 0.075000 -0.035255 -2.000000
v -0.475000 -0.035255 -1.187922
v -0.450000 -0.500000 -1.187922
v 0.475000 -0.035255 -1.187922
v 0.450000 -0.500000 -1.187922
v 0.450000 -0.500000 0.830398
v 0.475000 -0.035255 0.830398
v -0.475000 -0.035255 0.830398
v -0.450000 -0.500000 0.830398
v 0.300000 -0.035255 -1.696836
v 0.200000 -0.500000 -1.781609
v -0.200000 -0.500000 -1.696836
v -0.300000 -0.035255 -1.696836
v -0.150000 -0.500000 1.548652
v -0.250000 -0.035255 1.548652
v 0.150000 -0.500000 1.548652
v 0.250000 -0.035255 1.548652
v 0.000000 -0.681086 -1.187922
v 0.000000 -0.681086 -1.781609
v 0.500000 -0.300000 0.830398
v 0.000000 -0.681086 0.830398
v 0.000000 -0.655473 1.688183
v 0.500000 -0.300000 -1.187922
v -0.500000 -0.300000 -1.200000
v -0.500000 -0.300000 0.830398
v 0.075000 -0.300000 -2.054910
v -0.475000 -0.035255 -0.178762
v -0.450000 -0.500000 -0.178762
v -0.250000 -0.300000 -1.696836
v 0.250000 -0.300000 -1.739222
v 0.450000 -0.500000 -0.178762
v -0.075000 -0.300000 -2.054910
v 0.225000 -0.300000 1.548652
v -0.225000 -0.300000 1.548652
v 0.000000 -0.300000 2.111645
v 0.475000 -0.035255 -0.178762
v 0.000000 0.025246 1.928354
v 0.000000 0.025246 1.884160
v -0.075000 -0.008770 -2.000000
v 0.075000 -0.008770 -2.000000
v 0.300000 -0.008770 -1.696836
v -0.300000 -0.008770 -1.696836
v -0.289991 -0.008770 -1.696836
v 0.289991 -0.008770 -1.696836
v -0.075000 -0.008770 -1.985651
v 0.075000 -0.008770 -1.985651
v 0.095000 -0.035255 0.830398
v -0.095000 -0.035255 0.830398
v -0.095000 -0.035255 -1.187922
v 0.095000 -0.035255 -1.187922
v 0.300000 -0.035255 0.671234
v 0.300000 -0.035255 -1.033884
v -0.300000 -0.035255 0.671234
v -0.300000 -0.035255 -1.033884
v 0.095000 0.123262 0.830398
v -0.095000 0.123262 0.830398
v -0.095000 0.123262 -1.187922
v 0.095000 0.123262 -1.187922
v 0.300000 0.123262 0.671234
v 0.300000 0.123262 -1.033884
v -0.300000 0.123262 0.671234
v -0.300000 0.123262 -1.033884
v -0.095000 0.160000 -1.187922
v 0.095000 0.160000 -1.187922
v 0.300000 0.160000 -1.033884
v -0.300000 0.160000 -1.033884
v 0.095000 0.160000 0.830398
v -0.095000 0.160000 0.830398
v 0.300000 0.160000 0.671234
v -0.300000 0.160000 0.671234
v 0.300000 0.123262 0.544956
v 0.300000 0.123262 -0.920591
v -0.300000 0.123262 0.544956
v -0.300000 0.123262 -0.920591
v 0.300000 0.160000 0.544956
v 0.300000 0.160000 -0.920591
v -0.300000 0.160000 0.544956
v -0.300000 0.160000 -0.920591
v 0.075000 0.160000 0.671234
v -0.075000 0.160000 0.671234
v -0.075000 0.160000 0.544956
v 0.075000 0.160000 0.544956
v 0.075000 0.249980 0.671234
v -0.075000 0.249980 0.671234
v -0.075000 0.249980 0.544956
v 0.075000 0.249980 0.544956
vn -0.0000 1.0000 -0.0000
vn -0.0000 0.0225 -0.9997
vn 0.9046 0.0466 0.4236
vn 0.9444 -0.0000 0.3287
vn 0.9701 -0.2425 -0.0000
vn 0.9956 0.0940 -0.0000
vn -0.8553 -0.0271 -0.5174
vn -0.8992 -0.1640 -0.4055
vn -0.9206 -0.0346 -0.3890
vn -0.9956 0.0940 -0.0000
vn -0.9430 -0.1412 0.3014
vn -0.7871 -0.5857 0.1935
vn 0.7871 -0.5857 0.1935
vn -0.5056 -0.8557 0.1101
vn 0.5056 -0.8557 0.1101
vn -0.3733 -0.9277 -0.0000
vn 0.3733 -0.9277 -0.0000
vn -0.4948 -0.8617 -0.1122
vn 0.4842 -0.8690 -0.1019
vn 0.6310 -0.6969 -0.3407
vn -0.7070 -0.6439 -0.2925
vn -0.0000 -0.8377 -0.5461
vn -0.8713 -0.2309 -0.4331
vn 0.9009 -0.1835 -0.3934
vn 0.9281 -0.0140 -0.3720
vn -0.0000 0.2031 -0.9792
vn 0.8397 0.0204 -0.5427
vn 0.8720 -0.1075 -0.4775
vn 0.8916 -0.2786 0.3569
vn -0.9444 -0.0000 0.3287
vn -0.8916 -0.2786 0.3569
vn -0.9046 0.0466 0.4236
vn 0.9430 -0.1412 0.3014
vn -0.7587 0.4977 0.4203
vn 0.7587 0.4977 0.4203
vn -0.2352 0.9719 -0.0000
vn 0.2352 0.9719 -0.0000
vn -0.6413 -0.6801 -0.3552
vn 0.6413 -0.6801 -0.3552
vn 0.8030 -0.0000 -0.5960
vn -0.0000 -0.0000 -1.0000
vn -0.8030 -0.0000 -0.5960
vn -0.0000 -0.0000 1.0000
vn -0.7659 -0.2989 0.5693
vn -0.0000 -0.4764 0.8793
vn 0.7659 -0.2989 0.5693
vn -0.0000 -1.0000 -0.0000
vn -0.6007 -0.0000 -0.7995
vn -0.6133 -0.0000 0.7899
vn 0.6133 -0.0000 0.7899
vn 0.6007 -0.0000 -0.7995
vn -1.0000 -0.0000 -0.0000
vn 1.0000 -0.0000 -0.0000
vn -0.9701 -0.2425 -0.0000
vt 0.000000 0.000000
vt 0.375000 0.500000
vt 0.375000 0.250000
vt 0.625000 0.718750
vt 0.625000 0.750000
vt 0.500000 0.750000
vt 0.500000 0.718750
vt 0.625000 0.687500
vt 0.500000 0.687500
vt 0.375000 0.656250
vt 0.375000 0.625000
vt 0.500000 0.625000
vt 0.375000 0.687500
vt 0.625000 0.625000
vt 0.625000 0.656250
vt 0.625000 0.250000
vt 0.250000 0.125000
vt 0.312500 0.125000
vt 0.187500 0.125000
vt 0.375000 0.750000
vt 0.250000 0.375000
vt 0.187500 0.375000
vt 0.375000 0.718750
vt 0.375000 0.562500
vt 0.500000 0.562500
vt 0.625000 0.562500
vt 0.625000 0.500000
vt 0.312500 0.375000
s 0
usemtl Material.002
f 31/1/2 5/2/2 1/3/2 37/1/2
f 36/10/5 10/11/5 28/12/5 25/9/5 11/13/5
f 1/3/8 17/19/8 34/17/8 37/1/8
f 3/20/11 40/6/11 39/21/11 19/22/11
f 19/22/12 27/1/12 3/20/12
f 21/23/13 3/20/13 27/1/13
f 19/22/14 14/1/14 26/1/14 27/1/14
f 21/23/15 27/1/15 26/1/15 11/13/15
f 14/1/16 33/1/16 8/1/16 23/1/16 26/1/16
f 11/13/17 26/1/17 23/1/17 10/11/17 36/10/17
f 17/19/18 24/1/18 23/1/18 8/1/18
f 16/24/19 10/11/19 23/1/19 24/1/19
f 5/2/20 16/24/20 24/1/20
f 24/1/21 17/19/21 1/3/21
f 24/1/22 1/3/22 5/2/22
f 8/1/23 29/1/23 34/17/23 17/19/23
f 35/25/24 28/12/24 10/11/24 16/24/24
f 31/1/28 35/25/28 16/24/28 5/2/28
f 11/13/29 25/9/29 38/7/29 21/23/29
f 19/22/31 39/21/31 30/1/31 14/1/31
f 21/23/33 38/7/33 40/6/33 3/20/33
f 14/1/54 30/1/54 29/1/54 8/1/54 33/1/54
usemtl Material.003
f 22/4/3 4/5/3 40/6/3 38/7/3
f 12/8/4 22/4/4 38/7/4 25/9/4
f 12/8/6 25/9/6 28/12/6 9/14/6 41/15/6
f 2/16/7 37/1/7 34/17/7 18/18/7
f 7/1/9 18/18/9 34/17/9 29/1/9
f 30/1/10 13/1/10 32/1/10 7/1/10 29/1/10
f 9/14/25 28/12/25 35/25/25 15/26/25
f 2/16/26 6/27/26 31/1/26 37/1/26
f 6/27/27 15/26/27 35/25/27 31/1/27
f 20/28/30 13/1/30 30/1/30 39/21/30
f 40/6/32 4/5/32 20/28/32 39/21/32
f 20/28/34 4/5/34 42/1/34
f 4/5/35 22/4/35 42/1/35
f 42/1/36 43/1/36 20/28/36
f 42/1/37 22/4/37 43/1/37
f 43/1/38 22/1/38 4/1/38
f 43/1/39 4/1/39 20/1/39
f 15/26/40 6/27/40 45/27/40 46/26/40
f 6/27/41 2/16/41 44/16/41 45/27/41
f 2/16/42 18/18/42 47/18/42 44/16/42
f 15/26/43 46/26/43 49/1/43
f 47/18/43 18/18/43 48/1/43
f 45/27/1 44/16/1 50/16/1 51/27/1
f 51/1/44 6/1/44 15/1/44 49/1/44
f 45/27/1 51/27/1 49/1/1 46/26/1
f 50/1/45 2/1/45 6/1/45 51/1/45
f 48/1/46 18/1/46 2/1/46 50/1/46
f 44/16/1 47/18/1 48/1/1 50/16/1
usemtl Material.004
f 32/1/1 13/1/1 7/1/1
f 53/1/1 58/1/1 13/1/1
f 52/1/47 56/1/47 12/1/47
f 55/1/1 57/1/1 9/1/1
f 54/1/1 7/1/1 59/1/1
f 7/1/1 13/1/1 58/1/1 59/1/1
f 57/1/1 56/1/1 12/1/1 9/1/1
f 22/4/1 12/8/1 56/1/1 52/1/1
f 13/1/1 20/28/1 53/1/1
f 22/1/1 52/1/1 53/1/1 20/1/1 4/1/1
f 18/1/1 7/1/1 54/1/1 2/1/1
f 15/1/1 6/1/1 55/1/1 9/1/1
f 2/1/1 54/1/1 55/1/1 6/1/1
usemtl Material.005
f 59/1/48 67/1/48 62/1/48 54/1/48
f 53/1/43 52/1/43 60/1/43 61/1/43
f 58/1/49 53/1/49 61/1/49 66/1/49
f 52/1/50 56/1/50 64/1/50 60/1/50
f 55/1/41 54/1/41 62/1/41 63/1/41
f 55/1/51 63/1/51 65/1/51 57/1/51
f 58/1/52 66/1/52 78/1/52 79/1/52 67/1/52 59/1/52
f 57/1/53 65/1/53 77/1/53 76/1/53 64/1/53 56/1/53
f 67/1/48 71/1/48 68/1/48 62/1/48
f 65/1/41 67/1/41 71/1/41 70/1/41
f 63/1/41 62/1/41 68/1/41 69/1/41
f 63/1/51 69/1/51 70/1/51 65/1/51
f 69/1/1 68/1/1 71/1/1 70/1/1
f 66/1/49 61/1/49 73/1/49 75/1/49
f 60/1/50 64/1/50 74/1/50 72/1/50
f 61/1/43 60/1/43 72/1/43 73/1/43
f 66/1/43 64/1/43 74/1/43 84/1/43 85/1/43 75/1/43
f 73/1/1 72/1/1 74/1/1 84/1/1 85/1/1 75/1/1
f 77/1/1 79/1/1 78/1/1 76/1/1
f 76/1/53 80/1/53 74/1/53 64/1/53
f 82/1/52 78/1/52 66/1/52 75/1/52
f 78/1/41 82/1/41 86/1/41 87/1/41 80/1/41 76/1/41
f 80/1/1 87/1/1 86/1/1 82/1/1 75/1/1 85/1/1 84/1/1 74/1/1
f 77/1/53 65/1/53 70/1/53 81/1/53
f 83/1/52 71/1/52 67/1/52 79/1/52
f 77/1/43 81/1/43 83/1/43 79/1/43
f 70/1/1 71/1/1 83/1/1 81/1/1
f 87/1/41 86/1/41 90/1/41 91/1/41
f 85/1/43 84/1/43 88/1/43 89/1/43
f 91/1/53 88/1/53 84/1/53 87/1/53
f 86/1/52 85/1/52 89/1/52 90/1/52
f 88/1/1 91/1/1 90/1/1 89/1/1
