# Blender 4.0.2
# www.blender.org
mtllib low_poly_sphere.mtl
o Sphere
v 0.000000 0.779423 -0.500000
v 0.000000 0.450000 -0.866025
v 0.000000 0.000000 -1.000000
v 0.000000 -0.450000 -0.866025
v 0.000000 -0.779423 -0.500000
v 0.433013 0.779423 -0.250000
v 0.750000 0.450000 -0.433013
v 0.866025 0.000000 -0.500000
v 0.750000 -0.450000 -0.433013
v 0.433013 -0.779423 -0.250000
v 0.433013 0.779423 0.250000
v 0.750000 0.450000 0.433013
v 0.866025 0.000000 0.500000
v 0.750000 -0.450000 0.433013
v 0.433013 -0.779423 0.250000
v -0.000000 0.779423 0.500000
v -0.000000 0.450000 0.866025
v -0.000000 0.000000 1.000000
v -0.000000 -0.450000 0.866025
v -0.000000 -0.779423 0.500000
v 0.000000 0.900000 0.000000
v -0.433013 0.779423 0.250000
v -0.750000 0.450000 0.433013
v -0.866026 0.000000 0.500000
v -0.750000 -0.450000 0.433013
v -0.433013 -0.779423 0.250000
v -0.433013 0.779423 -0.250000
v -0.750000 0.450000 -0.433013
v -0.866025 0.000000 -0.500000
v -0.750000 -0.450000 -0.433013
v -0.433013 -0.779423 -0.250000
v 0.000000 -0.900000 0.000000
vn 0.1341 -0.9633 -0.2323
vn 0.4842 -0.2497 -0.8386
vn 0.3603 0.6934 -0.6240
vn 0.3603 -0.6934 -0.6240
vn 0.4842 0.2497 -0.8386
vn 0.1341 0.9633 -0.2323
vn 0.9683 -0.2497 -0.0000
vn 0.7206 0.6934 -0.0000
vn 0.7206 -0.6934 -0.0000
vn 0.9683 0.2497 -0.0000
vn 0.2683 0.9633 -0.0000
vn 0.2683 -0.9633 -0.0000
vn 0.3603 0.6934 0.6240
vn 0.3603 -0.6934 0.6240
vn 0.4842 0.2497 0.8386
vn 0.1341 0.9633 0.2323
vn 0.1341 -0.9633 0.2323
vn 0.4842 -0.2497 0.8386
vn -0.3603 -0.6934 0.6240
vn -0.4842 0.2497 0.8386
vn -0.1341 0.9633 0.2323
vn -0.1341 -0.9633 0.2323
vn -0.4842 -0.2497 0.8386
vn -0.3603 0.6934 0.6240
vn -0.7206 -0.6934 -0.0000
vn -0.9683 0.2497 -0.0000
vn -0.2683 0.9633 -0.0000
vn -0.2683 -0.9633 -0.0000
vn -0.9683 -0.2497 -0.0000
vn -0.7206 0.6934 -0.0000
vn -0.3603 -0.6934 -0.6240
vn -0.4842 0.2497 -0.8386
vn -0.1341 0.9633 -0.2323
vn -0.1341 -0.9633 -0.2323
vn -0.4842 -0.2497 -0.8386
vn -0.3603 0.6934 -0.6240
vt 0.583333 0.000000
vt 0.666667 0.166667
vt 0.500000 0.166667
vt 0.666667 0.333333
vt 0.666667 0.500000
vt 0.500000 0.500000
vt 0.500000 0.333333
vt 0.666667 0.666667
vt 0.666667 0.833333
vt 0.500000 0.833333
vt 0.500000 0.666667
vt 0.583333 1.000000
vt 0.333333 0.500000
vt 0.333333 0.333333
vt 0.333333 0.833333
vt 0.333333 0.666667
vt 0.333333 0.166667
vt 0.416667 1.000000
vt 0.416667 0.000000
vt 0.166667 0.833333
vt 0.166667 0.666667
vt 0.166667 0.333333
vt 0.166667 0.166667
vt 0.166667 0.500000
vt 0.250000 1.000000
vt 0.250000 0.000000
vt 0.000000 0.333333
vt 0.000000 0.166667
vt 0.000000 0.666667
vt 0.000000 0.500000
vt 0.083333 1.000000
vt 0.000000 0.833333
vt 0.083333 0.000000
vt 1.000000 0.166667
vt 1.000000 0.333333
vt 0.833333 0.333333
vt 0.833333 0.166667
vt 1.000000 0.500000
vt 1.000000 0.666667
vt 0.833333 0.666667
vt 0.833333 0.500000
vt 1.000000 0.833333
vt 0.916667 1.000000
vt 0.833333 0.833333
vt 0.916667 0.000000
vt 0.750000 1.000000
vt 0.750000 0.000000
s 0
f 32/1/1 5/2/1 10/3/1
f 4/4/2 3/5/2 8/6/2 9/7/2
f 2/8/3 1/9/3 6/10/3 7/11/3
f 5/2/4 4/4/4 9/7/4 10/3/4
f 3/5/5 2/8/5 7/11/5 8/6/5
f 1/9/6 21/12/6 6/10/6
f 9/7/7 8/6/7 13/13/7 14/14/7
f 7/11/8 6/10/8 11/15/8 12/16/8
f 10/3/9 9/7/9 14/14/9 15/17/9
f 8/6/10 7/11/10 12/16/10 13/13/10
f 6/10/11 21/18/11 11/15/11
f 32/19/12 10/3/12 15/17/12
f 12/16/13 11/15/13 16/20/13 17/21/13
f 15/17/14 14/14/14 19/22/14 20/23/14
f 13/13/15 12/16/15 17/21/15 18/24/15
f 11/15/16 21/25/16 16/20/16
f 32/26/17 15/17/17 20/23/17
f 14/14/18 13/13/18 18/24/18 19/22/18
f 20/23/19 19/22/19 25/27/19 26/28/19
f 18/24/20 17/21/20 23/29/20 24/30/20
f 16/20/21 21/31/21 22/32/21
f 32/33/22 20/23/22 26/28/22
f 19/22/23 18/24/23 24/30/23 25/27/23
f 17/21/24 16/20/24 22/32/24 23/29/24
f 26/34/25 25/35/25 30/36/25 31/37/25
f 24/38/26 23/39/26 28/40/26 29/41/26
f 22/42/27 21/43/27 27/44/27
f 32/45/28 26/34/28 31/37/28
f 25/35/29 24/38/29 29/41/29 30/36/29
f 23/39/30 22/42/30 27/44/30 28/40/30
f 31/37/31 30/36/31 4/4/31 5/2/31
f 29/41/32 28/40/32 2/8/32 3/5/32
f 27/44/33 21/46/33 1/9/33
f 32/47/34 31/37/34 5/2/34
f 30/36/35 29/41/35 3/5/35 4/4/35
f 28/40/36 27/44/36 1/9/36 2/8/36
