# Blender 4.0.2
# www.blender.org
mtllib testship.mtl
o Cube
v -0.006348 0.149874 2.113472
v -0.006348 -0.336746 1.500278
v -0.406348 -0.336746 0.709534
v 0.593652 0.149874 -1.844176
v 0.393652 -0.336746 -1.640838
v -0.606348 0.149874 -1.844176
v -0.406348 -0.336746 -1.640838
v 0.393652 -0.336746 0.709534
v 0.593652 0.149874 0.709534
v -0.606348 0.149874 0.709534
v 0.593652 0.149874 0.309534
v -0.606348 0.149874 0.309534
v 0.593652 0.149874 -0.959462
v -0.606348 0.149874 -0.959462
v 0.393652 0.540718 0.109534
v -0.406348 0.540718 0.109534
v 0.393652 0.536420 -0.897456
v -0.406348 0.536420 -0.897456
v 0.393652 0.538568 -0.033994
v 0.393652 0.537494 -0.689538
v -0.406348 0.538568 -0.033994
v -0.406348 0.537494 -0.689538
v -0.366348 0.537494 -0.689538
v 0.353652 0.537494 -0.689538
v -0.366348 0.538568 -0.033994
v 0.353652 0.538568 -0.033994
v -0.306348 0.823934 -0.645708
v -0.306348 0.823934 -0.210720
v 0.293652 0.823934 -0.645708
v 0.293652 0.823934 -0.210720
v -0.486348 0.149874 1.109534
v 0.473652 0.149874 1.109534
v 0.293652 0.823934 -0.428214
v -0.306348 0.823934 -0.428214
v -0.306348 0.823934 -0.536960
v 0.293652 0.823934 -0.536960
v 0.043652 0.823934 -0.390466
v 0.043652 0.823934 -0.490466
v -0.056348 0.823934 -0.390466
v -0.056348 0.823934 -0.490466
v 0.043652 1.192452 -0.547224
v 0.043652 1.192452 -0.647224
v -0.056348 1.192452 -0.547224
v -0.056348 1.192452 -0.647224
v 0.043652 1.028194 -0.468844
v 0.043652 1.028194 -0.568844
v -0.056348 1.028194 -0.468844
v -0.056348 1.028194 -0.568844
v -0.056348 1.100322 -0.608034
v -0.056348 1.100322 -0.508034
v 0.043652 1.100322 -0.508034
v 0.043652 1.100322 -0.608034
v -0.306348 1.028194 -0.526346
v -0.306348 1.028194 -0.626346
v -0.306348 1.100322 -0.665536
v -0.306348 1.100322 -0.565536
v 0.293652 1.028194 -0.526346
v 0.293652 1.028194 -0.626346
v 0.293652 1.100322 -0.565536
v 0.293652 1.100322 -0.665536
v 0.593652 0.149874 -1.604176
v 0.593652 0.149874 -1.744176
v -0.606348 0.149874 -1.744176
v -0.606348 0.149874 -1.604176
v 0.033652 0.149874 -1.604176
v -0.046348 0.149874 -1.604176
v 0.033652 0.149874 -1.667886
v -0.046348 0.149874 -1.667886
v 0.033652 0.596448 -1.748530
v -0.046348 0.596448 -1.748530
v 0.033652 0.596448 -1.812240
v -0.046348 0.596448 -1.812240
vn -0.0000 1.0000 -0.0000
vn 0.8060 -0.4493 0.3854
vn -0.0000 -0.3856 -0.9227
vn -0.0000 -1.0000 -0.0000
vn 0.9249 -0.3801 -0.0000
vn 0.7756 -0.4944 0.3924
vn -0.9249 -0.3801 -0.0000
vn 0.8913 -0.3663 0.2674
vn -0.7756 -0.4944 0.3924
vn -0.0000 0.4555 0.8902
vn -0.8890 0.4578 -0.0009
vn 0.8890 0.4578 -0.0009
vn -0.0000 0.1584 -0.9874
vn -0.0000 1.0000 -0.0043
vn 0.9787 0.2053 -0.0002
vn -0.9787 0.2053 -0.0002
vn -0.0000 0.1513 -0.9885
vn -0.0000 0.5265 0.8502
vn -0.8060 -0.4493 0.3854
vn -0.8913 -0.3663 0.2674
vn -0.0000 0.3582 0.9336
vn 1.0000 -0.0000 -0.0000
vn -0.0000 0.4774 0.8787
vn -0.0000 0.3914 0.9202
vn -1.0000 -0.0000 -0.0000
vn 0.1981 -0.4680 -0.8613
vn -0.1981 0.4680 0.8613
vn 0.1981 0.4680 0.8613
vn -0.1981 -0.4680 -0.8613
vn -0.0000 -0.3914 -0.9202
vn -0.0000 -0.4774 -0.8787
vn -0.0000 -0.3582 -0.9336
vn -0.0000 -0.3076 -0.9515
vn -0.0000 0.3076 0.9515
vt 0.625000 0.500000
vt 0.687500 0.500000
vt 0.750000 0.500000
vt 0.812500 0.500000
vt 0.843750 0.500000
vt 0.851562 0.500000
vt 0.859375 0.500000
vt 0.875000 0.500000
vt 0.875000 0.750000
vt 0.859375 0.734375
vt 0.851562 0.726562
vt 0.843750 0.718750
vt 0.812500 0.687500
vt 0.750000 0.625000
vt 0.687500 0.562500
vt 0.250000 0.500000
vt 0.375000 0.000000
vt 0.625000 0.000000
vt 0.625000 0.250000
vt 0.375000 0.250000
vt 0.125000 0.500000
vt 0.375000 0.750000
vt 0.250000 0.750000
vt 0.125000 0.750000
vt 0.000000 0.000000
s 0
usemtl Material.001
f 1/1/1 32/2/1 9/3/1 11/4/1 13/5/1 61/6/1 62/7/1 4/8/1 6/9/1 63/10/1 64/11/1 14/12/1 12/13/1 10/14/1 31/15/1
f 32/2/2 1/1/2 8/16/2
f 7/17/3 6/18/3 4/19/3 5/20/3
f 5/21/4 8/16/4 2/22/4 3/23/4 7/24/4
f 8/16/5 5/20/5 4/8/5 62/7/5 61/6/5 13/5/5 11/4/5 9/3/5
f 1/1/6 2/22/6 8/16/6
f 6/9/7 7/24/7 3/23/7 10/14/7 12/13/7 14/12/7 64/11/7 63/10/7
f 9/3/8 32/2/8 8/16/8
f 2/22/9 1/1/9 3/23/9
f 15/25/10 16/25/10 12/25/10 11/25/10
f 12/25/11 16/25/11 21/25/11 22/25/11 18/25/11 14/25/11
f 13/25/12 17/25/12 20/25/12 19/25/12 15/25/12 11/25/12
f 17/25/13 13/25/13 14/25/13 18/25/13
f 16/25/14 15/25/14 19/25/14 20/25/14 17/25/14 18/25/14 22/25/14 21/25/14
f 26/25/15 24/25/15 29/25/15 36/25/15 33/25/15 30/25/15
f 25/25/16 28/25/16 34/25/16 35/25/16 27/25/16 23/25/16
f 24/25/17 23/25/17 27/25/17 29/25/17
f 26/25/18 30/25/18 28/25/18 25/25/18
f 30/25/1 33/25/1 36/25/1 29/25/1 27/25/1 35/25/1 34/25/1 28/25/1
f 3/23/19 1/1/19 31/15/19
f 31/15/20 10/14/20 3/23/20
f 37/25/21 45/25/21 47/25/21 39/25/21
f 38/25/22 46/25/22 52/25/22 42/25/22 41/25/22 51/25/22 45/25/22 37/25/22
f 45/25/23 51/25/23 50/25/23 47/25/23
f 41/25/24 43/25/24 50/25/24 51/25/24
f 43/25/1 41/25/1 42/25/1 44/25/1
f 47/25/4 53/25/4 54/25/4 48/25/4
f 46/25/4 58/25/4 57/25/4 45/25/4
f 56/25/25 55/25/25 54/25/25 53/25/25
f 48/25/26 54/25/26 55/25/26 49/25/26
f 49/25/1 55/25/1 56/25/1 50/25/1
f 50/25/27 56/25/27 53/25/27 47/25/27
f 58/25/22 60/25/22 59/25/22 57/25/22
f 45/25/28 57/25/28 59/25/28 51/25/28
f 51/25/1 59/25/1 60/25/1 52/25/1
f 52/25/29 60/25/29 58/25/29 46/25/29
f 43/25/25 44/25/25 49/25/25 50/25/25
f 42/25/30 52/25/30 49/25/30 44/25/30
f 52/25/31 46/25/31 48/25/31 49/25/31
f 38/25/32 40/25/32 48/25/32 46/25/32
f 39/25/25 47/25/25 48/25/25 40/25/25
f 65/25/22 67/25/22 71/25/22 69/25/22
f 67/25/33 68/25/33 72/25/33 71/25/33
f 65/25/34 69/25/34 70/25/34 66/25/34
f 66/25/25 70/25/25 72/25/25 68/25/25
f 70/25/1 69/25/1 71/25/1 72/25/1
l 23 22
l 20 24
l 25 21
l 19 26
l 33 37
l 38 36
l 39 34
l 35 40
l 61 65
l 66 64
l 62 67
l 68 63
