# Blender 4.0.2
# www.blender.org
mtllib barrel.mtl
o Barrel
v 0.000000 0.330945 -0.066000
v 0.000000 0.746945 -0.066000
v 0.012876 0.330945 -0.064732
v 0.012876 0.746945 -0.064732
v 0.025257 0.330945 -0.060976
v 0.025257 0.746945 -0.060976
v 0.036668 0.330945 -0.054877
v 0.036668 0.746945 -0.054877
v 0.054877 0.330945 -0.036668
v 0.054877 0.746945 -0.036668
v 0.060976 0.330945 -0.025257
v 0.060976 0.746945 -0.025257
v 0.064732 0.330945 -0.012876
v 0.064732 0.746945 -0.012876
v 0.066000 0.330945 -0.000000
v 0.066000 0.746945 -0.000000
v 0.064732 0.330945 0.012876
v 0.064732 0.746945 0.012876
v 0.036668 0.330945 0.054877
v 0.036668 0.746945 0.054877
v 0.025257 0.330945 0.060976
v 0.025257 0.746945 0.060976
v 0.012876 0.330945 0.064732
v 0.012876 0.746945 0.064732
v 0.000000 0.330945 0.066000
v 0.000000 0.746945 0.066000
v -0.036668 0.330945 0.054877
v -0.036668 0.746945 0.054877
v -0.054877 0.330945 0.036668
v -0.054877 0.746945 0.036668
v -0.060976 0.330945 0.025257
v -0.060976 0.746945 0.025257
v -0.064732 0.330945 0.012876
v -0.064732 0.746945 0.012876
v -0.064732 0.330945 -0.012876
v -0.064732 0.746945 -0.012876
v -0.060976 0.330945 -0.025257
v -0.060976 0.746945 -0.025257
v -0.054877 0.330945 -0.036668
v -0.054877 0.746945 -0.036668
v -0.036668 0.330945 -0.054877
v -0.036668 0.746945 -0.054877
v -0.025257 0.330945 -0.060976
v -0.025257 0.746945 -0.060976
v -0.012876 0.330945 -0.064732
v -0.012876 0.746945 -0.064732
v 0.000000 -0.033402 -0.088000
v 0.000000 0.382598 -0.088000
v 0.017168 -0.033402 -0.086309
v 0.017168 0.382598 -0.086309
v 0.033676 -0.033402 -0.081301
v 0.033676 0.382598 -0.081301
v 0.048890 -0.033402 -0.073169
v 0.048890 0.382598 -0.073169
v 0.062225 -0.033402 -0.062225
v 0.062225 0.382598 -0.062225
v 0.073169 -0.033402 -0.048890
v 0.073169 0.382598 -0.048890
v 0.081301 -0.033402 -0.033676
v 0.081301 0.382598 -0.033676
v 0.086309 -0.033402 -0.017168
v 0.086309 0.382598 -0.017168
v 0.088000 -0.033402 -0.000000
v 0.088000 0.382598 -0.000000
v 0.086309 -0.033402 0.017168
v 0.086309 0.382598 0.017168
v 0.081301 -0.033402 0.033676
v 0.081301 0.382598 0.033676
v 0.073169 -0.033402 0.048890
v 0.073169 0.382598 0.048890
v 0.062225 -0.033402 0.062225
v 0.062225 0.382598 0.062225
v 0.048890 -0.033402 0.073169
v 0.048890 0.382598 0.073169
v 0.033676 -0.033402 0.081301
v 0.033676 0.382598 0.081301
v 0.017168 -0.033402 0.086309
v 0.017168 0.382598 0.086309
v 0.000000 -0.033402 0.088000
v 0.000000 0.382598 0.088000
v -0.017168 -0.033402 0.086309
v -0.017168 0.382598 0.086309
v -0.033676 -0.033402 0.081301
v -0.033676 0.382598 0.081301
v -0.048890 -0.033402 0.073169
v -0.048890 0.382598 0.073169
v -0.062225 -0.033402 0.062225
v -0.062225 0.382598 0.062225
v -0.073169 -0.033402 0.048890
v -0.073169 0.382598 0.048890
v -0.081301 -0.033402 0.033676
v -0.081301 0.382598 0.033676
v -0.086309 -0.033402 0.017168
v -0.086309 0.382598 0.017168
v -0.088000 -0.033402 -0.000000
v -0.088000 0.382598 -0.000000
v -0.086309 -0.033402 -0.017168
v -0.086309 0.382598 -0.017168
v -0.081301 -0.033402 -0.033676
v -0.081301 0.382598 -0.033676
v -0.073169 -0.033402 -0.048890
v -0.073169 0.382598 -0.048890
v -0.062225 -0.033402 -0.062225
v -0.062225 0.382598 -0.062225
v -0.048890 -0.033402 -0.073169
v -0.048890 0.382598 -0.073169
v -0.033676 -0.033402 -0.081301
v -0.033676 0.382598 -0.081301
v -0.017168 -0.033402 -0.086309
v -0.017168 0.382598 -0.086309
vn -0.8315 -0.0000 -0.5556
vn -1.0000 -0.0000 -0.0000
vn 0.2903 -0.0000 0.9569
vn -0.2903 -0.0000 0.9569
vn 0.5556 -0.0000 -0.8315
vn -0.8315 -0.0000 0.5556
vn -0.1951 -0.0000 -0.9808
vn 0.8315 -0.0000 0.5556
vn -0.0000 1.0000 -0.0000
vn -0.0000 -1.0000 -0.0000
vn 0.0980 -0.0000 -0.9952
vn 0.2903 -0.0000 -0.9569
vn 0.4714 -0.0000 -0.8819
vn 0.6344 -0.0000 -0.7730
vn 0.7730 -0.0000 -0.6344
vn 0.8819 -0.0000 -0.4714
vn 0.9569 -0.0000 -0.2903
vn 0.9952 -0.0000 -0.0980
vn 0.9952 -0.0000 0.0980
vn 0.9569 -0.0000 0.2903
vn 0.8819 -0.0000 0.4714
vn 0.7730 -0.0000 0.6344
vn 0.6344 -0.0000 0.7730
vn 0.4714 -0.0000 0.8819
vn 0.0980 -0.0000 0.9952
vn -0.0980 -0.0000 0.9952
vn -0.4714 -0.0000 0.8819
vn -0.6344 -0.0000 0.7730
vn -0.7730 -0.0000 0.6344
vn -0.8819 -0.0000 0.4714
vn -0.9569 -0.0000 0.2903
vn -0.9952 -0.0000 0.0980
vn -0.9952 -0.0000 -0.0980
vn -0.9569 -0.0000 -0.2903
vn -0.8819 -0.0000 -0.4714
vn -0.7730 -0.0000 -0.6344
vn -0.6344 -0.0000 -0.7730
vn -0.4714 -0.0000 -0.8819
vn -0.2903 -0.0000 -0.9569
vn -0.0980 -0.0000 -0.9952
vn 0.9808 -0.0000 -0.1951
vt 0.187500 1.000000
vt 0.156250 1.000000
vt 0.093750 1.000000
vt 0.093750 0.500000
vt 0.156250 0.500000
vt 0.187500 0.500000
vt 0.218750 0.500000
vt 0.218750 1.000000
vt 0.281250 1.000000
vt 0.281250 0.500000
vt 0.531250 1.000000
vt 0.500000 1.000000
vt 0.500000 0.500000
vt 0.531250 0.500000
vt 0.562500 0.500000
vt 0.593750 0.500000
vt 0.593750 1.000000
vt 0.562500 1.000000
vt 0.406250 1.000000
vt 0.406250 0.500000
vt 0.937500 1.000000
vt 0.906250 1.000000
vt 0.843750 1.000000
vt 0.843750 0.500000
vt 0.906250 0.500000
vt 0.937500 0.500000
vt 0.968750 0.500000
vt 0.968750 1.000000
vt 0.312500 1.000000
vt 0.312500 0.500000
vt 0.343750 0.500000
vt 0.343750 1.000000
vt 0.062500 1.000000
vt 0.031250 1.000000
vt 1.000000 1.000000
vt 0.000000 0.500000
vt 0.031250 0.500000
vt 0.062500 0.500000
vt 0.718750 1.000000
vt 0.718750 0.500000
vt 0.296822 0.485388
vt 0.250000 0.490000
vt 0.203178 0.485388
vt 0.158156 0.471731
vt 0.116663 0.449553
vt 0.050447 0.383337
vt 0.028269 0.341844
vt 0.014612 0.296822
vt 0.014612 0.203178
vt 0.028269 0.158156
vt 0.050447 0.116663
vt 0.116663 0.050447
vt 0.250000 0.010000
vt 0.296822 0.014612
vt 0.341844 0.028269
vt 0.383337 0.050447
vt 0.485388 0.203178
vt 0.490000 0.250000
vt 0.485388 0.296822
vt 0.471731 0.341844
vt 0.449553 0.383337
vt 0.383337 0.449553
vt 0.341844 0.471731
vt 0.750000 0.490000
vt 0.796822 0.485388
vt 0.841844 0.471731
vt 0.883337 0.449553
vt 0.949553 0.383337
vt 0.971731 0.341844
vt 0.985388 0.296822
vt 0.990000 0.250000
vt 0.985388 0.203178
vt 0.883337 0.050447
vt 0.841844 0.028269
vt 0.796822 0.014612
vt 0.750000 0.010000
vt 0.616663 0.050447
vt 0.550447 0.116663
vt 0.528269 0.158156
vt 0.514612 0.203178
vt 0.514612 0.296822
vt 0.528269 0.341844
vt 0.550447 0.383337
vt 0.616663 0.449553
vt 0.658156 0.471731
vt 0.703178 0.485388
vt 1.000000 0.500000
vt 0.875000 1.000000
vt 0.875000 0.500000
vt 0.812500 1.000000
vt 0.812500 0.500000
vt 0.781250 1.000000
vt 0.781250 0.500000
vt 0.750000 1.000000
vt 0.750000 0.500000
vt 0.687500 1.000000
vt 0.687500 0.500000
vt 0.656250 1.000000
vt 0.656250 0.500000
vt 0.625000 1.000000
vt 0.625000 0.500000
vt 0.468750 1.000000
vt 0.468750 0.500000
vt 0.437500 1.000000
vt 0.437500 0.500000
vt 0.375000 1.000000
vt 0.375000 0.500000
vt 0.250000 1.000000
vt 0.250000 0.500000
vt 0.125000 1.000000
vt 0.125000 0.500000
vt 0.080294 0.419706
vt 0.010000 0.250000
vt 0.080294 0.080294
vt 0.158156 0.028269
vt 0.203178 0.014612
vt 0.419706 0.080294
vt 0.449553 0.116663
vt 0.471731 0.158156
vt 0.419706 0.419706
vt 0.000000 1.000000
vt 0.919706 0.419706
vt 0.971731 0.158156
vt 0.949553 0.116663
vt 0.919706 0.080294
vt 0.703178 0.014612
vt 0.658156 0.028269
vt 0.580294 0.080294
vt 0.510000 0.250000
vt 0.580294 0.419706
s 0
usemtl Material.011
f 38/1/1 40/2/1 42/3/1 41/4/1 39/5/1 37/6/1 35/7/1 36/8/1
f 34/9/2 36/8/2 35/7/2 33/10/2
f 24/11/3 26/12/3 25/13/3 23/14/3 21/15/3 19/16/3 20/17/3 22/18/3
f 26/12/4 28/19/4 27/20/4 25/13/4
f 6/21/5 8/22/5 10/23/5 9/24/5 7/25/5 5/26/5 3/27/5 4/28/5
f 32/29/6 34/9/6 33/10/6 31/30/6 29/31/6 27/20/6 28/19/6 30/32/6
f 44/33/7 46/34/7 2/35/7 4/28/7 3/27/7 1/36/7 45/37/7 43/38/7 41/4/7 42/3/7
f 18/39/8 20/17/8 19/16/8 17/40/8
f 4/41/9 2/42/9 46/43/9 44/44/9 42/45/9 40/46/9 38/47/9 36/48/9 34/49/9 32/50/9 30/51/9 28/52/9 26/53/9 24/54/9 22/55/9 20/56/9 18/57/9 16/58/9 14/59/9 12/60/9 10/61/9 8/62/9 6/63/9
f 1/64/10 3/65/10 5/66/10 7/67/10 9/68/10 11/69/10 13/70/10 15/71/10 17/72/10 19/73/10 21/74/10 23/75/10 25/76/10 27/77/10 29/78/10 31/79/10 33/80/10 35/81/10 37/82/10 39/83/10 41/84/10 43/85/10 45/86/10
f 47/87/11 48/35/11 50/28/11 49/27/11
f 49/27/12 50/28/12 52/21/12 51/26/12
f 51/26/13 52/21/13 54/22/13 53/25/13
f 53/25/14 54/22/14 56/88/14 55/89/14
f 55/89/15 56/88/15 58/23/15 57/24/15
f 57/24/16 58/23/16 60/90/16 59/91/16
f 59/91/17 60/90/17 62/92/17 61/93/17
f 61/93/18 62/92/18 64/94/18 63/95/18
f 63/95/19 64/94/19 66/39/19 65/40/19
f 65/40/20 66/39/20 68/96/20 67/97/20
f 67/97/21 68/96/21 70/98/21 69/99/21
f 69/99/22 70/98/22 72/100/22 71/101/22
f 71/101/23 72/100/23 74/17/23 73/16/23
f 73/16/24 74/17/24 76/18/24 75/15/24
f 75/15/3 76/18/3 78/11/3 77/14/3
f 77/14/25 78/11/25 80/12/25 79/13/25
f 79/13/26 80/12/26 82/102/26 81/103/26
f 81/103/4 82/102/4 84/104/4 83/105/4
f 83/105/27 84/104/27 86/19/27 85/20/27
f 85/20/28 86/19/28 88/106/28 87/107/28
f 87/107/29 88/106/29 90/32/29 89/31/29
f 89/31/30 90/32/30 92/29/30 91/30/30
f 91/30/31 92/29/31 94/9/31 93/10/31
f 93/10/32 94/9/32 96/108/32 95/109/32
f 95/109/33 96/108/33 98/8/33 97/7/33
f 97/7/34 98/8/34 100/1/34 99/6/34
f 99/6/35 100/1/35 102/2/35 101/5/35
f 101/5/36 102/2/36 104/110/36 103/111/36
f 103/111/37 104/110/37 106/3/37 105/4/37
f 105/4/38 106/3/38 108/33/38 107/38/38
f 50/41/9 48/42/9 110/43/9 108/44/9 106/45/9 104/112/9 102/46/9 100/47/9 98/48/9 96/113/9 94/49/9 92/50/9 90/51/9 88/114/9 86/52/9 84/115/9 82/116/9 80/53/9 78/54/9 76/55/9 74/56/9 72/117/9 70/118/9 68/119/9 66/57/9 64/58/9 62/59/9 60/60/9 58/61/9 56/120/9 54/62/9 52/63/9
f 107/38/39 108/33/39 110/34/39 109/37/39
f 109/37/40 110/34/40 48/121/40 47/36/40
f 47/64/10 49/65/10 51/66/10 53/67/10 55/122/10 57/68/10 59/69/10 61/70/10 63/71/10 65/72/10 67/123/10 69/124/10 71/125/10 73/73/10 75/74/10 77/75/10 79/76/10 81/126/10 83/127/10 85/77/10 87/128/10 89/78/10 91/79/10 93/80/10 95/129/10 97/81/10 99/82/10 101/83/10 103/130/10 105/84/10 107/85/10 109/86/10
f 16/94/41 18/39/41 17/40/41 15/95/41 13/93/41 11/91/41 9/24/41 10/23/41 12/90/41 14/92/41
