# Blender 4.0.2
# www.blender.org
mtllib fort1base.mtl
o FortBase
v 0.000000 -0.100000 -2.000000
v 0.390181 -0.100000 -1.961571
v 0.765367 -0.100000 -1.847759
v 1.111140 -0.100000 -1.662939
v 1.414214 -0.100000 -1.414214
v 1.662939 -0.100000 -1.111140
v 1.847759 -0.100000 -0.765367
v 1.961571 -0.100000 -0.390181
v 2.000000 -0.100000 0.000000
v 1.961571 -0.100000 0.390181
v 1.847759 -0.100000 0.765367
v 1.662939 -0.100000 1.111140
v 1.414214 -0.100000 1.414214
v 1.111140 -0.100000 1.662939
v 0.765367 -0.100000 1.847759
v 0.390181 -0.100000 1.961571
v 0.000000 -0.100000 2.000000
v -0.390181 -0.100000 1.961571
v -0.765367 -0.100000 1.847759
v -1.111140 -0.100000 1.662939
v -1.414214 -0.100000 1.414214
v -1.662939 -0.100000 1.111140
v -1.847759 -0.100000 0.765367
v -1.961571 -0.100000 0.390181
v -2.000000 -0.100000 0.000000
v -1.961571 -0.100000 -0.390181
v -1.847759 -0.100000 -0.765367
v -1.662939 -0.100000 -1.111140
v -1.414214 -0.100000 -1.414214
v -1.111140 -0.100000 -1.662939
v -0.765367 -0.100000 -1.847759
v -0.390181 -0.100000 -1.961571
v -0.400000 -0.100000 2.320229
v -0.400000 -0.100000 1.320229
v 0.400000 -0.100000 2.320229
v 0.400000 -0.100000 1.320229
v 0.000000 -0.100000 2.595866
v 1.357807 -0.100000 1.923493
v 0.650700 -0.100000 1.216386
v 1.923493 -0.100000 1.357807
v 1.216386 -0.100000 0.650700
v 1.835555 -0.100000 1.835555
v 2.320229 -0.100000 0.400000
v 1.320229 -0.100000 0.400000
v 2.320229 -0.100000 -0.400000
v 1.320229 -0.100000 -0.400000
v 2.595866 -0.100000 0.000000
v 1.923493 -0.100000 -1.357807
v 1.216386 -0.100000 -0.650700
v 1.357807 -0.100000 -1.923493
v 0.650700 -0.100000 -1.216386
v 1.835554 -0.100000 -1.835554
v 0.400000 -0.100000 -2.320229
v 0.400000 -0.100000 -1.320229
v -0.400000 -0.100000 -2.320229
v -0.400000 -0.100000 -1.320229
v 0.000000 -0.100000 -2.595866
v -1.357807 -0.100000 -1.923493
v -0.650700 -0.100000 -1.216386
v -1.923493 -0.100000 -1.357807
v -1.216386 -0.100000 -0.650700
v -1.835554 -0.100000 -1.835554
v -2.320229 -0.100000 -0.400000
v -1.320229 -0.100000 -0.400000
v -2.320229 -0.100000 0.400000
v -1.320229 -0.100000 0.400000
v -2.595866 -0.100000 0.000000
v -1.923493 -0.100000 1.357807
v -1.216386 -0.100000 0.650700
v -1.357807 -0.100000 1.923493
v -0.650700 -0.100000 1.216386
v -1.835554 -0.100000 1.835554
v 0.551607 -1.025507 -2.773114
v 1.082015 -1.025507 -2.612216
v 1.570843 -1.025507 -2.350932
v 2.350932 -1.025507 -1.570843
v 2.612216 -1.025507 -1.082016
v 2.773114 -1.025507 -0.551607
v 2.773114 -1.025507 0.551607
v 2.612216 -1.025507 1.082016
v 2.350932 -1.025507 1.570843
v 1.570843 -1.025507 2.350932
v 1.082015 -1.025507 2.612216
v 0.551607 -1.025507 2.773114
v -0.551607 -1.025507 2.773114
v -1.082016 -1.025507 2.612216
v -1.570843 -1.025507 2.350932
v -2.350933 -1.025507 1.570843
v -2.612216 -1.025507 1.082015
v -2.773114 -1.025507 0.551607
v -2.773114 -1.025507 -0.551607
v -2.612216 -1.025507 -1.082015
v -2.350933 -1.025507 -1.570843
v -1.570843 -1.025507 -2.350932
v -1.082016 -1.025507 -2.612216
v -0.551607 -1.025507 -2.773114
v -0.540575 -1.025507 3.135643
v 0.540575 -1.025507 3.135643
v -0.000000 -1.025507 3.423309
v 1.834990 -1.025507 2.599479
v 2.599478 -1.025507 1.834990
v 2.420645 -1.025507 2.420645
v 3.135643 -1.025507 0.540575
v 3.135643 -1.025507 -0.540575
v 3.423308 -1.025507 -0.000000
v 2.599478 -1.025507 -1.834990
v 1.834990 -1.025507 -2.599479
v 2.420645 -1.025507 -2.420645
v 0.540575 -1.025507 -3.135643
v -0.540575 -1.025507 -3.135643
v -0.000000 -1.025507 -3.423308
v -1.834990 -1.025507 -2.599479
v -2.599479 -1.025507 -1.834990
v -2.420645 -1.025507 -2.420645
v -3.135643 -1.025507 -0.540575
v -3.135643 -1.025507 0.540575
v -3.423308 -1.025507 -0.000000
v -2.599479 -1.025507 1.834990
v -1.834990 -1.025507 2.599479
v -2.420645 -1.025507 2.420645
vn -0.0000 1.0000 -0.0000
vn -0.0000 -1.0000 -0.0000
vn 0.3522 0.6647 0.6589
vn 0.6698 0.6249 -0.4011
vn -0.7149 0.6647 0.2169
vn 0.1900 0.6249 -0.7572
vn -0.4011 0.6249 -0.6698
vn 0.7149 0.6647 0.2169
vn -0.3522 0.6647 0.6589
vn -0.7572 0.6249 -0.1900
vn -0.4011 0.6249 0.6698
vn -0.6698 0.6249 0.4011
vn 0.1900 0.6249 0.7572
vn 0.6589 0.6647 -0.3522
vn 0.2169 0.6647 0.7149
vn -0.1900 0.6249 0.7572
vn 0.6698 0.6249 0.4011
vn 0.7572 0.6249 -0.1900
vn 0.2169 0.6647 -0.7149
vn 0.4011 0.6249 -0.6698
vn 0.6589 0.6647 0.3522
vn -0.1900 0.6249 -0.7572
vn -0.6698 0.6249 -0.4011
vn 0.7149 0.6647 -0.2169
vn -0.7572 0.6249 0.1900
vn 0.3522 0.6647 -0.6589
vn -0.3522 0.6647 -0.6589
vn -0.7149 0.6647 -0.2169
vn -0.6589 0.6647 0.3522
vn -0.2169 0.6647 -0.7149
vn -0.2169 0.6647 0.7149
vn -0.6589 0.6647 -0.3522
vn 0.4011 0.6249 0.6698
vn 0.7572 0.6249 0.1900
vn 0.9867 0.1624 -0.0017
vn -0.9867 0.1624 -0.0017
vn 0.6965 0.1624 -0.6989
vn -0.6989 0.1624 0.6965
vn -0.0017 0.1624 -0.9867
vn -0.0017 0.1624 0.9867
vn 0.6989 0.1624 -0.6965
vn 0.0017 0.1624 0.9867
vn 0.0017 0.1624 -0.9867
vn 0.6989 0.1624 0.6965
vn -0.6965 0.1624 -0.6989
vn -0.6965 0.1624 0.6989
vn 0.9867 0.1624 0.0017
vn -0.9867 0.1624 0.0017
vn 0.6965 0.1624 0.6989
vn -0.6989 0.1624 -0.6965
vt 0.750000 0.490000
vt 0.703178 0.485388
vt 0.658156 0.471731
vt 0.616663 0.449553
vt 0.580294 0.419706
vt 0.550447 0.383337
vt 0.528269 0.341844
vt 0.514612 0.296822
vt 0.510000 0.250000
vt 0.514612 0.203178
vt 0.528269 0.158156
vt 0.550447 0.116663
vt 0.580294 0.080294
vt 0.616663 0.050447
vt 0.658156 0.028269
vt 0.703178 0.014612
vt 0.750000 0.010000
vt 0.796822 0.014612
vt 0.841844 0.028269
vt 0.883337 0.050447
vt 0.919706 0.080294
vt 0.949553 0.116663
vt 0.971731 0.158156
vt 0.985388 0.203178
vt 0.990000 0.250000
vt 0.985388 0.296822
vt 0.971731 0.341844
vt 0.949553 0.383337
vt 0.919706 0.419706
vt 0.883337 0.449553
vt 0.841844 0.471731
vt 0.796822 0.485388
vt 0.125000 0.500000
vt 0.125000 0.750000
vt 0.250000 0.750000
vt 0.375000 0.750000
vt 0.375000 0.500000
vt 0.968750 0.500000
vt 0.937500 0.500000
vt 0.906250 0.500000
vt 0.843750 0.500000
vt 0.812500 0.500000
vt 0.781250 0.500000
vt 0.718750 0.500000
vt 0.687500 0.500000
vt 0.656250 0.500000
vt 0.593750 0.500000
vt 0.562500 0.500000
vt 0.531250 0.500000
vt 0.468750 0.500000
vt 0.437500 0.500000
vt 0.406250 0.500000
vt 0.343750 0.500000
vt 0.312500 0.500000
vt 0.281250 0.500000
vt 0.218750 0.500000
vt 0.187500 0.500000
vt 0.156250 0.500000
vt 0.093750 0.500000
vt 0.062500 0.500000
vt 0.031250 0.500000
s 0
usemtl Material.116
f 1/1/1 32/2/1 31/3/1 30/4/1 29/5/1 28/6/1 27/7/1 26/8/1 25/9/1 24/10/1 23/11/1 22/12/1 21/13/1 20/14/1 19/15/1 18/16/1 17/17/1 16/18/1 15/19/1 14/20/1 13/21/1 12/22/1 11/23/1 10/24/1 9/25/1 8/26/1 7/27/1 6/28/1 5/29/1 4/30/1 3/31/1 2/32/1
f 34/33/1 33/34/1 37/35/1 35/36/1 36/37/1
f 39/33/1 38/34/1 42/35/1 40/36/1 41/37/1
f 44/33/1 43/34/1 47/35/1 45/36/1 46/37/1
f 49/33/1 48/34/1 52/35/1 50/36/1 51/37/1
f 54/33/1 53/34/1 57/35/1 55/36/1 56/37/1
f 59/33/1 58/34/1 62/35/1 60/36/1 61/37/1
f 64/33/1 63/34/1 67/35/1 65/36/1 66/37/1
f 69/33/1 68/34/1 72/35/1 70/36/1 71/37/1
f 73/38/2 74/39/2 75/40/2 107/36/2 108/35/2 106/34/2 76/41/2 77/42/2 78/43/2 104/36/2 105/35/2 103/34/2 79/44/2 80/45/2 81/46/2 101/36/2 102/35/2 100/34/2 82/47/2 83/48/2 84/49/2 98/36/2 99/35/2 97/34/2 85/50/2 86/51/2 87/52/2 119/36/2 120/35/2 118/34/2 88/53/2 89/54/2 90/55/2 116/36/2 117/35/2 115/34/2 91/56/2 92/57/2 93/58/2 113/36/2 114/35/2 112/34/2 94/59/2 95/60/2 96/61/2 110/36/2 111/35/2 109/34/2
f 15/48/3 83/48/3 82/47/3 14/47/3
f 47/35/4 105/35/4 104/36/4 45/36/4
f 24/55/5 90/55/5 89/54/5 23/54/5
f 52/35/6 108/35/6 107/36/6 50/36/6
f 55/36/7 57/35/7 111/35/7 110/36/7
f 11/45/8 80/45/8 79/44/8 10/44/8
f 20/52/9 87/52/9 86/51/9 19/51/9
f 62/35/10 114/35/10 113/36/10 60/36/10
f 37/35/11 33/34/11 97/34/11 99/35/11
f 67/35/12 117/35/12 116/36/12 65/36/12
f 42/35/13 38/34/13 100/34/13 102/35/13
f 7/42/14 77/42/14 76/41/14 6/41/14
f 16/49/15 84/49/15 83/48/15 15/48/15
f 72/35/16 120/35/16 119/36/16 70/36/16
f 47/35/17 43/34/17 103/34/17 105/35/17
f 52/35/18 48/34/18 106/34/18 108/35/18
f 3/39/19 74/39/19 73/38/19 2/38/19
f 57/35/20 53/34/20 109/34/20 111/35/20
f 12/46/21 81/46/21 80/45/21 11/45/21
f 62/35/22 58/34/22 112/34/22 114/35/22
f 67/35/23 63/34/23 115/34/23 117/35/23
f 8/43/24 78/43/24 77/42/24 7/42/24
f 72/35/25 68/34/25 118/34/25 120/35/25
f 4/40/26 75/40/26 74/39/26 3/39/26
f 31/60/27 95/60/27 94/59/27 30/59/27
f 27/57/28 92/57/28 91/56/28 26/56/28
f 23/54/29 89/54/29 88/53/29 22/53/29
f 32/61/30 96/61/30 95/60/30 31/60/30
f 19/51/31 86/51/31 85/50/31 18/50/31
f 28/58/32 93/58/32 92/57/32 27/57/32
f 37/35/33 99/35/33 98/36/33 35/36/33
f 42/35/34 102/35/34 101/36/34 40/36/34
f 73/38/35 109/34/35 53/34/35 2/38/35
f 55/36/36 110/36/36 96/61/36 32/61/36
f 112/34/37 58/34/37 30/59/37 94/59/37
f 60/36/38 113/36/38 93/58/38 28/58/38
f 115/34/39 63/34/39 26/56/39 91/56/39
f 90/55/40 24/55/40 65/36/40 116/36/40
f 81/46/41 12/46/41 40/36/41 101/36/41
f 79/44/42 103/34/42 43/34/42 10/44/42
f 45/36/43 104/36/43 78/43/43 8/43/43
f 76/41/44 106/34/44 48/34/44 6/41/44
f 50/36/45 107/36/45 75/40/45 4/40/45
f 82/47/46 100/34/46 38/34/46 14/47/46
f 84/49/47 16/49/47 35/36/47 98/36/47
f 97/34/48 33/34/48 18/50/48 85/50/48
f 119/36/49 87/52/49 20/52/49 70/36/49
f 118/34/50 68/34/50 22/53/50 88/53/50
